<?xml version="1.0" encoding="UTF-8"?>
<svg xmlns="http://www.w3.org/2000/svg" viewBox="0 0 800 1000" width="800" height="1000">
  <style>
    path {
      fill: #00ff9d;
      filter: drop-shadow(0 0 10px rgba(0, 255, 157, 0.7));
    }
  </style>
  <path d="M400 50c-55.23 0-100 44.77-100 100 0 36.41 19.46 68.28 48.52 85.93-17.36 14.16-28.52 35.6-28.52 59.57v30c0 8.28 6.72 15 15 15h130c8.28 0 15-6.72 15-15v-30c0-23.97-11.16-45.41-28.52-59.57 29.06-17.65 48.52-49.52 48.52-85.93 0-55.23-44.77-100-100-100zm-50 245.5v-15c0-27.57 22.43-50 50-50s50 22.43 50 50v15h-100z"/>
  <path d="M550 350H250c-27.57 0-50 22.43-50 50v100c0 27.57 22.43 50 50 50h25v350c0 27.57 22.43 50 50 50h150c27.57 0 50-22.43 50-50V550h25c27.57 0 50-22.43 50-50V400c0-27.57-22.43-50-50-50zm-75 500H325V550h150v300z"/>
  <path d="M225 450h-50c-8.28 0-15-6.72-15-15s6.72-15 15-15h50c8.28 0 15 6.72 15 15s-6.72 15-15 15zm400 0h-50c-8.28 0-15-6.72-15-15s6.72-15 15-15h50c8.28 0 15 6.72 15 15s-6.72 15-15 15z"/>
  <path d="M150 500c-8.28 0-15-6.72-15-15v-50c0-8.28 6.72-15 15-15s15 6.72 15 15v50c0 8.28-6.72 15-15 15zm500 0c-8.28 0-15-6.72-15-15v-50c0-8.28 6.72-15 15-15s15 6.72 15 15v50c0 8.28-6.72 15-15 15z"/>
  <path d="M175 550h-50c-8.28 0-15-6.72-15-15s6.72-15 15-15h50c8.28 0 15 6.72 15 15s-6.72 15-15 15zm500 0h-50c-8.28 0-15-6.72-15-15s6.72-15 15-15h50c8.28 0 15 6.72 15 15s-6.72 15-15 15z"/>
  <path d="M325 700h-50c-8.28 0-15-6.72-15-15s6.72-15 15-15h50c8.28 0 15 6.72 15 15s-6.72 15-15 15zm200 0h-50c-8.28 0-15-6.72-15-15s6.72-15 15-15h50c8.28 0 15 6.72 15 15s-6.72 15-15 15z"/>
  <path d="M325 750h-25c-8.28 0-15-6.72-15-15s6.72-15 15-15h25c8.28 0 15 6.72 15 15s-6.72 15-15 15zm175 0h-25c-8.28 0-15-6.72-15-15s6.72-15 15-15h25c8.28 0 15 6.72 15 15s-6.72 15-15 15z"/>
  <path d="M400 800c-8.28 0-15-6.72-15-15v-50c0-8.28 6.72-15 15-15s15 6.72 15 15v50c0 8.28-6.72 15-15 15z"/>
</svg>
